<svg width="219" height="38" fill="none" xmlns="http://www.w3.org/2000/svg"><path d="M43.331 28.84a25.374 25.374 0 00-5.342-1.196C25.794 26.21 10.923 32.32.159 38H0l4.688-7.082c9.217-5.052 21.957-10.598 31.882-9.426a19.64 19.64 0 012.152.377l4.61 6.971zM24.695.667l-7.547 11.41c4.183-1.645 8.582-2.944 12.82-3.435L24.696.667zm11.367 17.178l-3.848-5.818c-6.056.316-12.87 2.835-18.797 5.695l-4.56 6.892c8.49-4.019 18.522-7.438 27.205-6.769zM49.43 4.09V.972h13.104V4.09h-4.397v7.787h-4.311V4.09h-4.397zm13.8 7.787L68.683.973h5.454l5.453 10.904h-4.75l-.79-1.711h-5.272l-.799 1.71h-4.748zm6.776-4.518h2.817L71.501 4.4h-.173l-1.322 2.96zm11.6 4.518V.973h4.311v10.903h-4.31zm5.015-5.453l3.96-5.452h4.835l-4.14 5.452 4.311 5.452h-4.834L86.62 6.425zm10.986 5.453V.973h12.752v4.208h-4.127V3.934h-4.311V5.18h3.34v2.722h-3.34v1.019h4.311V7.674h4.131v4.206l-12.756-.003zM118.87 4.09V.972h13.104V4.09h-4.397v7.787h-4.311V4.09h-4.396zm15.475 7.787V.973h4.311v4.365h4.662V.973h4.303v10.904h-4.303V8.455h-4.662v3.422h-4.311zm16.968 0V.973h12.752v4.208h-4.13V3.934h-4.311V5.18h3.341v2.722h-3.341v1.019h4.311V7.674h4.13v4.206l-12.752-.003zm22.585 0V.973h4.311v10.903h-4.311zm5.016-5.453l3.958-5.452h4.835l-4.14 5.452 4.312 5.452h-4.835l-4.13-5.452zm10.982 5.453V.973h12.753v4.208h-4.131V3.934h-4.311V5.18h3.341v2.722h-3.341v1.019h4.311V7.674h4.131v4.206l-12.753-.003zM204.135.972h4.834l2.551 4.365h.086l2.551-4.365H219l-5.282 7.787v3.117h-4.31V8.76L204.135.972zM50.753 28.235V17.33h12.752v4.206h-4.13V20.29h-4.311v1.247h3.34v2.723h-3.34v1.018h4.31v-1.247h4.131v4.206l-12.752-.002zm14.59-5.457l3.169-5.448h11.344v4.205h-4.14v-1.084h-4.301l-1.323 2.33 1.323 2.339h4.302v-1.084h4.14v4.205H68.511l-3.169-5.463zm16.703 0a4.55 4.55 0 01.58-2.203 6.282 6.282 0 011.6-1.889 8.202 8.202 0 012.418-1.325 9.603 9.603 0 016.106 0 8.21 8.21 0 012.418 1.325 6.293 6.293 0 011.601 1.889c.381.686.58 1.44.58 2.205 0 .765-.199 1.52-.58 2.206a6.301 6.301 0 01-1.601 1.89 8.215 8.215 0 01-2.422 1.326 9.589 9.589 0 01-6.102 0 8.206 8.206 0 01-2.417-1.326 6.292 6.292 0 01-1.602-1.89 4.562 4.562 0 01-.58-2.208zm4.482 0c-.004.378.08.751.25 1.098.324.666.925 1.197 1.678 1.484a3.57 3.57 0 002.474 0 3.251 3.251 0 001.008-.602c.287-.254.516-.554.675-.885.244-.515.31-1.082.19-1.63a2.733 2.733 0 00-.865-1.45c-.595-.525-1.4-.82-2.24-.82-.84 0-1.647.295-2.242.82a2.83 2.83 0 00-.68.893 2.47 2.47 0 00-.248 1.092zm13.01 5.457v-3.742h4.131v.784h4.225v-.624l-8.356-1.794v-5.53h12.665v3.742h-4.139v-.783h-4.218v.554l8.356 1.795v5.598H99.538zm14.153-10.905h4.835l2.55 4.365h.086l2.551-4.365h4.843l-5.281 7.79v3.117h-4.311V25.12l-5.273-7.79zm16.35 10.905v-3.742h4.131v.784h4.225v-.624l-8.356-1.794v-5.53h12.665v3.742h-4.139v-.783h-4.218v.554l8.356 1.795v5.598h-12.664zm14.676-7.787V17.33h13.105v3.118h-4.397v7.787h-4.31v-7.787h-4.398zm15.475 7.787V17.332h12.753v4.205h-4.128V20.29h-4.311v1.247h3.341v2.723h-3.341v1.018h4.311v-1.247h4.13v4.206l-12.755-.002zm16.084 0V17.332h4.483l3.255 3.354 3.254-3.354h4.483v10.903h-4.303v-5.843h-.18l-3.254 3.345-3.255-3.345h-.174v5.843h-4.309zm15.788 8.728H50.358V38h141.706v-1.037z" fill="#fff"/></svg>