<svg viewBox="0 0 512 512" xmlns="http://www.w3.org/2000/svg" xmlns:xlink="http://www.w3.org/1999/xlink"><style>:root&gt;svg{display:none}:root&gt;svg:target{display:block}</style><svg fill="none" viewBox="0 0 42 42" id="css--advisor" xmlns="http://www.w3.org/2000/svg"><path d="M23.625 26.25h-3.281v-1.981a6.552 6.552 0 002.625-5.238h.328a2.291 2.291 0 00.328-4.56v-5.94A2.625 2.625 0 0021 5.906h-9.188a2.625 2.625 0 00-2.624 2.625v5.94a2.291 2.291 0 00.328 4.56h.328a6.552 6.552 0 002.625 5.238v1.981H9.188a8.541 8.541 0 00-8.532 8.531v5.907a.656.656 0 00.656.656H31.5a.656.656 0 00.656-.657v-5.906a8.54 8.54 0 00-8.531-8.531zm-5.181 8.168l1.178 2.353-1.398 3.26h-3.636l-1.397-3.26 1.18-2.353a.658.658 0 00-.327-.896l-3.827-1.64 2.983-3.978.506.506a3.825 3.825 0 005.409 0l.506-.506 2.982 3.977-3.826 1.64a.656.656 0 00-.329.897h-.004zm5.837-17.684a.984.984 0 01-.984.985h-.328V15.75h.328a.984.984 0 01.984.984zm-14.765.985a.984.984 0 010-1.969h.328v1.969h-.328zM10.5 8.53a1.313 1.313 0 011.313-1.312H21a1.313 1.313 0 011.313 1.312v5.906H21a.656.656 0 01-.656-.656v-1.969a.656.656 0 00-.864-.622l-1.583.528-.37-.37a.657.657 0 00-.465-.192h-3.937a.656.656 0 00-.656.656v1.97a.656.656 0 01-.656.655H10.5V8.532zm.656 10.5v-3.28h.656a1.969 1.969 0 001.97-1.969V12.47h3.009l.464.464a.656.656 0 00.671.159l1.105-.37v1.06A1.969 1.969 0 0021 15.75h.656v3.281a5.25 5.25 0 01-10.5 0zm5.25 6.563c.904 0 1.798-.188 2.625-.552v1.593l-.848.848a2.513 2.513 0 01-3.553 0l-.849-.848v-1.593a6.516 6.516 0 002.625.552zM1.97 34.78a7.227 7.227 0 017.218-7.218h2.626l-3.15 4.2a.656.656 0 00.266.996l3.954 1.694-1.002 2.003a.655.655 0 00-.015.552l1.295 3.023H1.97v-5.25zm28.875 5.25H19.65l1.296-3.022a.654.654 0 00-.016-.552l-1.001-2.004 3.954-1.694a.658.658 0 00.266-.997l-3.15-4.2h2.625a7.227 7.227 0 017.219 7.22v5.25zM39.375.656H27.562a1.969 1.969 0 00-1.968 1.969v9.188a1.969 1.969 0 001.968 1.968h3.282v3.281a.656.656 0 001.05.525l5.075-3.806h2.406a1.969 1.969 0 001.969-1.969V2.626a1.969 1.969 0 00-1.969-1.97zm.656 11.156a.656.656 0 01-.656.657H36.75a.656.656 0 00-.394.131l-4.2 3.15v-2.625a.656.656 0 00-.656-.656h-3.938a.656.656 0 01-.656-.656V2.624a.656.656 0 01.657-.656h11.812a.656.656 0 01.656.656v9.188z" fill="#820101"/><path d="M38.719 4.594h-10.5v1.312h10.5V4.594zm0 2.625h-10.5V8.53h10.5V7.22z" fill="#820101"/></svg><svg fill="none" viewBox="0 0 42 42" id="css--knowledge" xmlns="http://www.w3.org/2000/svg"><path d="M5.906 40.031h5.259c2.15 0 4.325.108 6.464.322l3.305.334v-.011c.023 0 .042.015.066.015s.042-.013.066-.015v.011l3.305-.328a63.497 63.497 0 016.464-.328h5.259a.656.656 0 00.656-.656V15.75a.656.656 0 00-.656-.656H34.9c-1.16 0-2.319.064-3.471.19l.143 1.305a30.64 30.64 0 013.328-.183h.538v19.688H34.9a31.905 31.905 0 00-13.244 2.909V26.25h-1.312v12.753A31.905 31.905 0 007.1 36.093h-.537V16.407H7.1c1.112 0 2.223.062 3.329.183l.143-1.305a31.903 31.903 0 00-3.472-.19H5.906a.656.656 0 00-.656.656v23.625a.656.656 0 00.656.656zM34.9 37.406h.538v1.313h-4.603c-1.81 0-3.635.08-5.447.228a30.566 30.566 0 019.512-1.54zm-28.337 0H7.1c3.231.008 6.44.528 9.509 1.541a66.568 66.568 0 00-5.447-.228h-4.6v-1.313z" fill="#820101"/><path d="M21 24.938a9.187 9.187 0 10-9.188-9.188A9.198 9.198 0 0021 24.938zm0-17.063a7.875 7.875 0 11-7.875 7.875A7.884 7.884 0 0121 7.875z" fill="#820101"/><path d="M21.656 19.031h-1.312a1.312 1.312 0 01-1.313-1.312H17.72a2.625 2.625 0 002.625 2.625v1.312h1.312v-1.312a2.625 2.625 0 000-5.25h-1.312a1.312 1.312 0 110-2.625h1.312a1.312 1.312 0 011.313 1.312h1.312a2.625 2.625 0 00-2.625-2.625V9.844h-1.312v1.312a2.625 2.625 0 000 5.25h1.312a1.312 1.312 0 110 2.625zm-5.906 6.563h1.313v4.593H15.75v-4.593zm9.188 0h1.312v4.593h-1.313v-4.593zm3.937-2.625h1.313v3.937h-1.313V22.97zm-17.062 0h1.312v3.937h-1.313V22.97zM29.28 5.332a3.504 3.504 0 012.401 2.4.657.657 0 001.213 0 3.506 3.506 0 012.401-2.4.656.656 0 000-1.213 3.504 3.504 0 01-2.401-2.401.657.657 0 00-1.213 0 3.502 3.502 0 01-2.401 2.4.656.656 0 000 1.214zm3.007-1.898a3.95 3.95 0 001.292 1.291 3.95 3.95 0 00-1.292 1.292 3.944 3.944 0 00-1.291-1.292 3.944 3.944 0 001.291-1.291zM6.049 7.3A3.506 3.506 0 018.45 9.701a.656.656 0 001.213 0 3.504 3.504 0 012.401-2.4.656.656 0 000-1.213 3.502 3.502 0 01-2.401-2.402.656.656 0 00-1.213 0 3.504 3.504 0 01-2.4 2.402.656.656 0 000 1.212zm3.007-1.898a3.95 3.95 0 001.292 1.292 3.943 3.943 0 00-1.292 1.291 3.95 3.95 0 00-1.291-1.291 3.95 3.95 0 001.291-1.292z" fill="#820101"/></svg><svg fill="none" viewBox="0 0 42 42" id="css--learni" xmlns="http://www.w3.org/2000/svg"><path d="M38.64 15.333h-2.503v-.28c0-.7-.57-1.27-1.27-1.27h-4.936a.616.616 0 000 1.232h4.937c.02 0 .037.017.037.037v7.512a.616.616 0 101.232 0v-5.999h2.503c.083 0 .151.068.151.151v21.495a2.56 2.56 0 01-2.557 2.557H5.766a2.56 2.56 0 01-2.557-2.557V16.717c0-.084.068-.152.151-.152h2.585v21.072c0 .87.707 1.576 1.576 1.576h27.04c.869 0 1.576-.707 1.576-1.576V25.192a.616.616 0 10-1.232 0v8.866h-9.968a4.498 4.498 0 00-3.28 1.418v-7.97a.616.616 0 10-1.232 0v7.97a4.498 4.498 0 00-3.28-1.418h-2.799a.616.616 0 100 1.233h2.8a3.284 3.284 0 013.225 2.69H7.521a.344.344 0 01-.343-.344v-2.346h4.54a.616.616 0 100-1.233h-4.54V15.052c0-.02.016-.037.036-.037h4.937a.616.616 0 000-1.232H7.214c-.7 0-1.269.57-1.269 1.27v.28H3.36c-.763 0-1.383.62-1.383 1.383v21.495c0 2.09 1.7 3.79 3.789 3.79h30.468c2.09 0 3.79-1.7 3.79-3.79V16.717c0-.763-.621-1.384-1.384-1.384zM24.937 35.291h9.968v2.346c0 .19-.154.344-.344.344h-12.85a3.284 3.284 0 013.226-2.69z" fill="#820101"/><path d="M12.827 8.644a.617.617 0 00.671-.555 7.555 7.555 0 012.43-4.871 7.557 7.557 0 015.113-1.986c4.178 0 7.578 3.4 7.578 7.578a7.528 7.528 0 01-1.395 4.382L23.28 19.33a.616.616 0 00-.097.333v.798a.294.294 0 01-.294.294h-.04l.392-6.66h.702a1.823 1.823 0 001.821-1.822V12.2a1.823 1.823 0 00-1.821-1.822c-.963 0-1.761.753-1.818 1.715l-.046.77h-2.16l-.046-.77a1.823 1.823 0 00-1.818-1.715 1.823 1.823 0 00-1.821 1.822v.075c0 1.004.817 1.82 1.821 1.82h.702l.392 6.657a.293.293 0 01-.251-.29v-.798a.616.616 0 00-.098-.333l-3.942-6.138a7.508 7.508 0 01-1.201-2.678.616.616 0 00-1.202.276 8.735 8.735 0 001.373 3.079l3.838 5.975v.617c0 .622.374 1.158.91 1.395v1.042a1.99 1.99 0 001.988 1.988h.953a1.99 1.99 0 001.988-1.988v-1.042c.535-.237.91-.773.91-1.395v-.617l3.838-5.975a8.754 8.754 0 001.597-5.06C29.851 3.953 25.9 0 21.041 0a8.78 8.78 0 00-5.945 2.31 8.785 8.785 0 00-2.825 5.663.616.616 0 00.556.671zm10.529 3.52a.59.59 0 011.177.035v.075a.59.59 0 01-.589.589h-.63l.042-.699zm-5.3.699a.59.59 0 01-.589-.59V12.2a.59.59 0 011.177-.035l.042.699h-.63zm3.952 1.232l-.393 6.66h-1.23l-.393-6.66h2.016zm.266 8.803c0 .417-.34.756-.756.756h-.954a.757.757 0 01-.756-.756v-.911h2.466v.91zm9.559-18.22c.145 0 .29-.05.406-.153l1.345-1.18a.616.616 0 00-.813-.926l-1.345 1.18a.616.616 0 00.407 1.08zm-.407 3.716l1.345 1.18a.614.614 0 00.87-.056.616.616 0 00-.057-.87l-1.345-1.18a.616.616 0 10-.813.926zM8.498 3.345l1.345 1.18a.613.613 0 00.87-.056.616.616 0 00-.057-.87L9.31 2.42a.616.616 0 10-.813.926zm.407 6.382c.145 0 .29-.05.407-.153l1.344-1.18a.616.616 0 10-.813-.926l-1.344 1.18a.616.616 0 00.406 1.08zm6.685 11.644a.616.616 0 00-.616-.616h-6.07a.616.616 0 100 1.232h6.07c.34 0 .616-.276.616-.616zm1.26 2.519h-6.832a.616.616 0 100 1.231h6.833a.616.616 0 000-1.232zm0 3.001h-6.832a.616.616 0 100 1.232h6.833a.616.616 0 100-1.232zm0 3.001h-6.832a.616.616 0 100 1.232h6.833a.616.616 0 000-1.232zm16.943-8.521a.616.616 0 00-.616-.616h-6.069a.616.616 0 100 1.232h6.07c.34 0 .615-.276.615-.616zm-1.729 2.519h-6.833a.616.616 0 100 1.231h6.833a.616.616 0 100-1.232zm0 3.001h-6.833a.616.616 0 100 1.232h6.833a.616.616 0 100-1.232zm0 3.001h-6.833a.616.616 0 100 1.232h6.833a.616.616 0 100-1.232z" fill="#820101"/></svg><svg fill="none" viewBox="0 0 42 42" id="css--learning" xmlns="http://www.w3.org/2000/svg"><g clip-path="url(#dclip0_104:297)" fill="#820101"><path d="M29.203 39.615H11.147a.656.656 0 01-.657-.654c-.004-1.43.056-5.004.704-7.315a6.45 6.45 0 01.672-1.611 6.06 6.06 0 012.164-2.102 5.505 5.505 0 012.954-.706c.129.006.253.05.357.125l2.76 2.013 2.92-2.022a.665.665 0 01.344-.116 5.504 5.504 0 012.954.706 6.057 6.057 0 012.165 2.102c.283.473.496.985.672 1.611.647 2.312.707 5.886.703 7.315a.656.656 0 01-.656.654zm-9.05-1.312h8.39c-.018-1.5-.125-4.426-.651-6.302a5.106 5.106 0 00-.535-1.292 4.704 4.704 0 00-1.682-1.632 4.195 4.195 0 00-2.063-.543h-.005l-3.142 2.176a.657.657 0 01-.76-.01l-2.972-2.166c-.539 0-1.284.106-2.06.543a4.701 4.701 0 00-1.681 1.631 5.11 5.11 0 00-.535 1.293c-.526 1.877-.633 4.803-.651 6.302h8.346z"/><path d="M14.951 39.615a.656.656 0 01-.656-.656v-5.07a.656.656 0 111.312 0v5.07a.656.656 0 01-.656.656zm10.447 0a.656.656 0 01-.656-.656v-5.07a.656.656 0 111.313 0v5.07a.656.656 0 01-.657.656zM20.2 27.213c-1.299 0-2.515-.555-3.425-1.563-.894-.99-1.386-2.301-1.386-3.692v-1.944c0-.28.177-.529.442-.62.225-.079.892-.372 1.25-.77a.647.647 0 01.893-.076c.034.025.52.377 1.354.555 1.155.245 2.402.058 3.708-.557a.656.656 0 01.76.146c.133.14.548.545.903.764.193.12.311.33.311.558v1.943c0 1.392-.492 2.703-1.386 3.693-.91 1.008-2.127 1.563-3.425 1.563zm-3.5-6.761v1.505c0 2.175 1.57 3.944 3.498 3.944 1.93 0 3.499-1.77 3.499-3.944V20.36a6.756 6.756 0 01-.496-.415l-.028-.025c-1.805.744-3.27.662-4.206.448a5.4 5.4 0 01-1.323-.484 4.995 4.995 0 01-.944.569z"/><path d="M16.045 20.67a.657.657 0 01-.602-.395c-.234-.54-.27-1.11-.301-1.614-.026-.41-.058-.922.063-1.427.106-.445.365-.915.792-1.436.066-.08.136-.16.207-.237 1.141-1.22 3.013-1.7 3.376-1.783a6.778 6.778 0 012.03-.173c.445.034.824.096 1.157.19.476.134.85.393 1.08.75.115.177.183.353.243.508.047.121.091.236.138.292.076.09.183.174.307.272.146.115.311.245.464.418.364.41.775 1.098.838 1.796.059.653-.195 1.215-.423 1.632l-.039.075c-.386.745-.469.86-.579.96a.656.656 0 01-.94-.912c.037-.058.13-.222.354-.652l.053-.102c.205-.376.288-.648.267-.883-.028-.305-.239-.734-.513-1.043a2.322 2.322 0 00-.295-.259 3.257 3.257 0 01-.496-.455c-.19-.224-.284-.47-.36-.666a1.623 1.623 0 00-.12-.268c-.073-.112-.24-.173-.333-.2a4.696 4.696 0 00-.904-.145 5.475 5.475 0 00-1.635.144c-.824.19-2.028.67-2.712 1.4a3.281 3.281 0 00-.15.172c-.366.447-.49.742-.53.91-.076.314-.053.683-.03 1.04.025.415.052.844.195 1.174a.657.657 0 01-.602.918zm7.866-1.14zM17.7 29.084a.656.656 0 01-.594-.935c.133-.282.306-1.07.319-1.585.005-.197-.018-.28-.063-.444a6.737 6.737 0 01-.033-.118.656.656 0 011.27-.332c.01.035.018.068.028.1.056.204.12.435.11.827-.015.596-.196 1.585-.442 2.11a.656.656 0 01-.595.377zm4.905.003a.656.656 0 01-.585-.356c-.264-.514-.493-1.51-.511-2.222a2.413 2.413 0 01.074-.692.656.656 0 111.273.322c-.022.085-.04.17-.036.337.015.558.21 1.348.367 1.655a.656.656 0 01-.582.956zM34.389 16.2a.656.656 0 01-.657-.657.665.665 0 00-.664-.665h-5.634a.656.656 0 01-.657-.656v-10.7c0-.363.294-.656.657-.656h5.634c.507 0 .97.192 1.32.507a1.97 1.97 0 011.322-.507h5.634c.362 0 .656.293.656.656v10.7a.656.656 0 01-.656.656H35.71a.666.666 0 00-.665.665.656.656 0 01-.656.657zm.656-11.357v8.838c.208-.074.432-.115.665-.115h4.978V4.178H35.71a.666.666 0 00-.665.665zm-6.955 8.723h4.978c.233 0 .457.04.665.115V4.843a.666.666 0 00-.665-.665H28.09v9.388z"/><path d="M38.857 6.82h-1.981a.656.656 0 110-1.312h1.98a.656.656 0 110 1.313zm0 2.709h-1.981a.656.656 0 110-1.313h1.98a.656.656 0 110 1.313zm0 2.707h-1.981a.656.656 0 110-1.312h1.98a.656.656 0 110 1.312zM31.902 6.82H29.92a.656.656 0 110-1.312h1.98a.656.656 0 110 1.313zm0 2.709H29.92a.656.656 0 110-1.313h1.98a.656.656 0 110 1.313zm0 2.707H29.92a.656.656 0 110-1.312h1.98a.656.656 0 110 1.312zm-24.754.043a2.749 2.749 0 01-2.745-2.746 2.749 2.749 0 012.745-2.746 2.749 2.749 0 012.746 2.746 2.749 2.749 0 01-2.746 2.746zm0-4.18a1.435 1.435 0 000 2.866 1.433 1.433 0 000-2.865z"/><path d="M8.488 16.681h-2.68a.656.656 0 01-.656-.656v-1.26a5.647 5.647 0 01-.292-.121l-.891.891a.657.657 0 01-.928 0L1.146 13.64a.656.656 0 010-.928l.891-.89a5.817 5.817 0 01-.121-.293H.656A.656.656 0 010 10.873v-2.68c0-.362.294-.656.656-.656h1.26a5.56 5.56 0 01.121-.293l-.89-.89a.656.656 0 010-.929L3.04 3.531a.656.656 0 01.928 0l.89.89a5.77 5.77 0 01.293-.12V3.04c0-.363.294-.656.657-.656h2.679c.363 0 .656.293.656.656V4.3c.099.037.196.077.293.12l.89-.89a.656.656 0 01.929 0l1.894 1.895a.656.656 0 010 .928l-.89.89c.043.097.083.195.12.293h1.26c.363 0 .657.294.657.656v2.68a.656.656 0 01-.657.656h-1.26a5.685 5.685 0 01-.12.293l.89.89a.656.656 0 010 .928l-1.894 1.895a.656.656 0 01-.928 0l-.891-.89a5.755 5.755 0 01-.293.12v1.26a.656.656 0 01-.656.656zM6.465 15.37h1.367v-1.077c0-.294.196-.552.479-.632a4.26 4.26 0 00.933-.387.656.656 0 01.786.108l.761.762.967-.967-.762-.761a.656.656 0 01-.108-.786c.166-.296.296-.61.387-.934a.656.656 0 01.632-.478h1.077V8.85h-1.077a.656.656 0 01-.632-.48 4.254 4.254 0 00-.387-.933.656.656 0 01.108-.785l.762-.762-.966-.967-.762.762a.656.656 0 01-.786.108 4.257 4.257 0 00-.933-.387.656.656 0 01-.48-.632V3.697H6.466v1.077a.656.656 0 01-.479.632 4.255 4.255 0 00-.934.387.657.657 0 01-.785-.108l-.762-.762-.967.967.762.762a.656.656 0 01.108.785 4.26 4.26 0 00-.387.934.656.656 0 01-.632.479H1.313v1.367h1.076c.294 0 .552.196.632.479.091.324.221.638.387.934.145.256.1.577-.108.785l-.761.762.966.966.762-.762a.656.656 0 01.785-.108c.296.166.61.296.934.387.283.08.479.338.479.632v1.077zm27.924 8.579h-4.273a.656.656 0 110-1.313h3.617V19.02a.656.656 0 111.312 0v4.273a.656.656 0 01-.656.656zm-22.968 0H7.148a.656.656 0 01-.656-.657V19.02a.656.656 0 111.312 0v3.616h3.617a.656.656 0 110 1.313zM23.258 9.683h-5.063a.656.656 0 110-1.313h5.063a.656.656 0 110 1.313z"/></g><defs><clipPath id="dclip0_104:297"><path fill="#fff" d="M0 0h42v42H0z"/></clipPath></defs></svg><svg aria-hidden="true" data-prefix="fas" data-icon="envelope" viewBox="0 0 512 512" class="esvg-inline--fa efa-envelope efa-w-16 efa-2x" id="css--main" xmlns="http://www.w3.org/2000/svg"><path fill="#820101" d="M502.3 190.8c3.9-3.1 9.7-.2 9.7 4.7V400c0 26.5-21.5 48-48 48H48c-26.5 0-48-21.5-48-48V195.6c0-5 5.7-7.8 9.7-4.7 22.4 17.4 52.1 39.5 154.1 113.6 21.1 15.4 56.7 47.8 92.2 47.6 35.7.3 72-32.8 92.3-47.6 102-74.1 131.6-96.3 154-113.7zM256 320c23.2.4 56.6-29.2 73.4-41.4 132.7-96.3 142.8-104.7 173.4-128.7 5.8-4.5 9.2-11.5 9.2-18.9v-19c0-26.5-21.5-48-48-48H48C21.5 64 0 85.5 0 112v19c0 7.4 3.4 14.3 9.2 18.9 30.6 23.9 40.7 32.4 173.4 128.7 16.8 12.2 50.2 41.8 73.4 41.4z"/></svg><svg fill="none" viewBox="0 0 42 42" id="css--management" xmlns="http://www.w3.org/2000/svg"><path d="M40.688 16.406h-2.583a17.614 17.614 0 00-1.764-4.252l1.828-1.827a.656.656 0 000-.928L32.6 3.829a.679.679 0 00-.928 0l-1.827 1.83a17.618 17.618 0 00-4.251-1.765V1.312a.656.656 0 00-.657-.656h-7.875a.656.656 0 00-.656.656V3.88a17.612 17.612 0 00-4.272 1.757L10.327 3.83a.656.656 0 00-.929 0L3.83 9.399a.656.656 0 000 .928l1.793 1.793a17.615 17.615 0 00-1.784 4.286H1.313a.656.656 0 00-.657.657v7.875a.656.656 0 00.656.656h2.513c.4 1.508.997 2.956 1.778 4.306l-1.772 1.772a.658.658 0 000 .928L9.4 38.17a.658.658 0 00.93 0l1.77-1.772c1.351.78 2.8 1.378 4.307 1.777v2.514a.656.656 0 00.657.656h7.875a.656.656 0 00.656-.657V38.16a17.608 17.608 0 004.284-1.785l1.794 1.794a.66.66 0 00.928 0L38.17 32.6a.657.657 0 000-.928l-1.807-1.807a17.634 17.634 0 001.758-4.271h2.568a.656.656 0 00.656-.657v-7.875a.656.656 0 00-.657-.656zm-.657 7.875h-2.424a.657.657 0 00-.64.507 16.28 16.28 0 01-1.989 4.836.657.657 0 00.095.808l1.706 1.707-4.64 4.64-1.692-1.693a.656.656 0 00-.81-.093 16.323 16.323 0 01-4.852 2.02.656.656 0 00-.504.636v2.382H17.72v-2.369a.657.657 0 00-.506-.639 16.308 16.308 0 01-4.87-2.01.657.657 0 00-.81.093l-1.67 1.67-4.64-4.64 1.668-1.67a.656.656 0 00.093-.81 16.313 16.313 0 01-2.01-4.869.656.656 0 00-.637-.506H1.97V17.72h2.38a.657.657 0 00.64-.505 16.319 16.319 0 012.018-4.849.656.656 0 00-.093-.81L5.222 9.863l4.64-4.64 1.706 1.706a.656.656 0 00.808.094 16.296 16.296 0 014.838-1.99.656.656 0 00.505-.64V1.968h6.562v2.435a.657.657 0 00.505.64 16.316 16.316 0 014.816 1.998.656.656 0 00.81-.094l1.725-1.726 4.64 4.64-1.726 1.726a.656.656 0 00-.093.81 16.313 16.313 0 011.997 4.815.656.656 0 00.64.506h2.436v6.562z" fill="#820101"/><path d="M21 6.563A14.437 14.437 0 1035.438 21 14.454 14.454 0 0021 6.562zm0 27.562A13.125 13.125 0 1134.125 21 13.139 13.139 0 0121 34.125z" fill="#820101"/><path d="M22.313 15.75a1.969 1.969 0 011.968 1.969v1.312h1.313V17.72a3.281 3.281 0 00-3.282-3.282h-.656v-1.312h-1.312v1.313h-.657a3.281 3.281 0 00-3.28 3.28v.657a3.287 3.287 0 003.28 3.281h.657v4.594h-.657a1.969 1.969 0 01-1.968-1.969V22.97h-1.313v1.312a3.281 3.281 0 003.282 3.282h.656v1.312h1.312v-1.313h.657a3.281 3.281 0 003.28-3.28v-.657a3.282 3.282 0 00-3.28-3.281h-.657V15.75h.657zm0 5.906a1.969 1.969 0 011.968 1.969v.656a1.969 1.969 0 01-1.968 1.969h-.657v-4.594h.657zm-1.97-1.312h-.655a1.969 1.969 0 01-1.97-1.969v-.656a1.969 1.969 0 011.97-1.969h.656v4.594zM21 9.188V10.5A10.511 10.511 0 0131.5 21h1.313A11.825 11.825 0 0021 9.187zM10.5 21H9.187A11.825 11.825 0 0021 32.813V31.5A10.511 10.511 0 0110.5 21z" fill="#820101"/></svg><svg fill="none" viewBox="0 0 42 42" id="css--performance" xmlns="http://www.w3.org/2000/svg"><path d="M9.634 29.702a1.78 1.78 0 00-.965 2.33l.912 2.211a1.792 1.792 0 002.33.965.485.485 0 01.564.124c.427.515.9.99 1.411 1.418a.493.493 0 01.132.544 1.792 1.792 0 00.964 2.33l2.212.912a1.785 1.785 0 002.33-.964.486.486 0 01.479-.296c.655.058 1.313.058 1.968 0a.498.498 0 01.486.309 1.757 1.757 0 00.965.965c.208.087.43.133.656.137a1.76 1.76 0 00.656-.137l2.212-.913a1.792 1.792 0 00.964-2.33.486.486 0 01.125-.564 10.62 10.62 0 001.496-1.41.485.485 0 01.565-.125 1.792 1.792 0 002.33-.965l.912-2.212a1.777 1.777 0 00-.965-2.33.485.485 0 01-.308-.485c0-.335.045-.656.045-.997h-1.312c0 .295 0 .584-.04.872a1.792 1.792 0 001.116 1.825.48.48 0 01.256.617l-.919 2.205a.472.472 0 01-.616.256 1.799 1.799 0 00-2.074.498c-.375.453-.79.87-1.24 1.247a1.785 1.785 0 00-.5 2.067.472.472 0 01-.255.617l-2.245.913a.447.447 0 01-.354 0 .486.486 0 01-.256-.256 1.798 1.798 0 00-1.818-1.116 9.839 9.839 0 01-1.759 0 1.791 1.791 0 00-1.817 1.109.466.466 0 01-.61.243l-2.212-.912a.472.472 0 01-.263-.604 1.792 1.792 0 00-.498-2.074 9.676 9.676 0 01-1.247-1.24 1.785 1.785 0 00-2.067-.499.472.472 0 01-.617-.256l-.92-2.205a.486.486 0 01.283-.656 1.772 1.772 0 001.09-1.779c0-.302-.04-.61-.04-.905H9.864c0 .334 0 .656.045 1.023a.453.453 0 01-.275.493z" fill="#820101"/><path d="M21 35.438a7.219 7.219 0 007.219-7.22h-1.313a5.906 5.906 0 11-11.812 0H13.78A7.219 7.219 0 0021 35.439zM35.438 10.5a.656.656 0 00-.657-.656h-5.25a.656.656 0 00-.656.656v15.094h-4.594v-10.5a.656.656 0 00-.656-.656h-5.25a.656.656 0 00-.656.656v10.5h-4.594v-5.907a.656.656 0 00-.656-.656h-5.25a.656.656 0 00-.657.657v5.906h-5.25v1.312h39.376v-1.312h-5.25V10.5zM11.811 25.594H7.876v-5.25h3.938v5.25zm11.157 0H19.03V15.75h3.938v9.844zm11.156 0h-3.938V11.156h3.938v14.438zM4.731 16.747L35.261 4.49l-1.136 2.028 1.142.656 2.067-3.662a.655.655 0 00-.38-.952l-4.037-1.247-.38 1.313 2.244.656L4.24 15.533l.492 1.214z" fill="#820101"/></svg><svg fill="none" viewBox="0 0 42 42" id="css--profit" xmlns="http://www.w3.org/2000/svg"><g clip-path="url(#hclip0_104:385)" fill="#820101"><path d="M10.655 4.057a2.604 2.604 0 00-2.6 2.601 2.604 2.604 0 002.6 2.602 2.604 2.604 0 002.602-2.602 2.604 2.604 0 00-2.602-2.6zm0 3.972c-.755 0-1.37-.615-1.37-1.37a1.372 1.372 0 111.371 1.37zm2.601 10.281v-2.378a.615.615 0 00-.615-.616H6.375a.615.615 0 00-.616.616v2.378c0 .34.276.615.616.615h6.266c.34 0 .615-.275.615-.615zm-1.23-.615H6.99v-1.148h5.036v1.148z"/><path d="M39.191 5.107h-3.905c-.68 0-1.273.379-1.58.936H17.313v-.39a.615.615 0 00-.488-.602l-1.5-.316-.007-.02.836-1.283a.615.615 0 00-.08-.771l-1.422-1.422a.615.615 0 00-.77-.08l-1.284.837a1.237 1.237 0 01-.02-.008l-.315-1.5A.615.615 0 0011.66 0H9.65a.615.615 0 00-.602.488l-.316 1.5a2.2 2.2 0 00-.02.008L7.43 1.159a.615.615 0 00-.77.08L5.236 2.661a.615.615 0 00-.08.771l.836 1.283a1.94 1.94 0 01-.008.02l-1.5.316a.615.615 0 00-.488.602v.39H3.98a2.964 2.964 0 00-2.96 2.96v19.138a2.964 2.964 0 002.96 2.96h2.33c.298 2.144 2.181 3.772 4.344 3.772a4.36 4.36 0 001.791-.384l-1.391 5.445c-.553 2.161 2.891 2.896 3.422.82l2.467-9.652h2.003v9.242c0 .9.756 1.656 1.656 1.656.901 0 1.656-.755 1.656-1.656V31.1h2.004l2.467 9.653c.53 2.075 3.975 1.342 3.422-.82L27.895 31.1h9.33a2.964 2.964 0 002.961-2.96V14.848a.615.615 0 10-1.23 0V28.14c0 .954-.776 1.73-1.73 1.73H14.998a4.393 4.393 0 00-4.343-3.771c-2.163 0-4.046 1.627-4.343 3.77H3.98c-.954 0-1.73-.775-1.73-1.729V10.27h2.81a.613.613 0 00.178.384l1.421 1.422c.206.206.527.24.771.08l1.284-.837.02.008.315 1.5c.06.284.311.488.602.488h2.01a.615.615 0 00.603-.488l.315-1.5.02-.008 1.283.837a.615.615 0 00.771-.08l1.422-1.422a.613.613 0 00.177-.383h17.011l-5.735 5.735-2.946-2.945a1.195 1.195 0 00-1.68 0l-1.912 1.912a.615.615 0 10.87.87l1.881-1.882 2.947 2.946c.46.459 1.22.46 1.679 0l8.373-8.373a.615.615 0 00-.435-1.05h-1.018c-.74 0-.74-1.147 0-1.147h3.905c.308 0 .558.25.558.556V10.8a.58.58 0 01-.574.575.575.575 0 01-.575-.575V9.783a.615.615 0 00-1.05-.436L27.527 19.37l-2.947-2.947a1.19 1.19 0 00-1.679 0l-5.05 5.05c-.516.518-1.334-.287-.81-.811l2.767-2.768a.615.615 0 10-.87-.87l-2.767 2.768a1.82 1.82 0 00.052 2.6 1.82 1.82 0 002.5-.049l5.018-5.019 2.946 2.946c.457.459 1.222.46 1.679.001l9.053-9.052c.19.793.905 1.385 1.756 1.385.983 0 1.804-.821 1.804-1.804V6.894a1.79 1.79 0 00-1.788-1.787zM13.285 40.45c-.137.534-1.193.396-1.038-.21l1.774-6.944c.512-.612.86-1.366.977-2.194h.676l-2.39 9.348zm7.744-.105c0 .548-.852.548-.852 0V31.1h.852v9.243zm7.93-.106c.156.605-.9.744-1.037.211l-2.39-9.348h1.093l2.335 9.137zM9.944 27.41a3.16 3.16 0 013.869 3.075v.002a3.16 3.16 0 01-3.157 3.155c-1.727 0-3.156-1.43-3.156-3.156a3.14 3.14 0 012.444-3.076zM2.25 9.003c0-.954.776-1.73 1.73-1.73h.016v.39c0 .291.204.543.489.602l1.499.316.008.02-.287.44H2.25v-.038zm11.884 1.85l-1.149-.749c-.417-.272-1.44.158-1.542.64l-.283 1.342h-1.01l-.282-1.343c-.103-.488-1.13-.908-1.542-.639l-1.15.75-.715-.716.75-1.15c.271-.417-.158-1.44-.64-1.541l-1.342-.283V6.152l1.342-.283c.488-.102.908-1.13.64-1.542l-.75-1.149.715-.716 1.15.75c.417.272 1.44-.157 1.542-.639l.282-1.343h1.013l.282 1.343c.103.488 1.13.908 1.542.639l1.15-.75.715.716-.75 1.15c-.272.417.158 1.44.64 1.541l1.342.283v1.012l-1.342.283c-.488.102-.908 1.13-.64 1.542l.75 1.15-.716.715zm20.732-2.186l-.374.374H15.604l-.287-.44.008-.02 1.499-.316a.615.615 0 00.489-.602v-.39h16.205a1.819 1.819 0 001.348 1.394z"/><path d="M35.825 25.76h-11.66a.615.615 0 100 1.23h11.66a.615.615 0 100-1.23zm0-2.7h-6.913a.615.615 0 100 1.23h6.913a.615.615 0 100-1.23zm-29.45-3.03a.615.615 0 100 1.231h4.28a.615.615 0 100-1.23h-4.28zm4.28 11.9c.34 0 .616-.275.616-.614v-1.66a.615.615 0 10-1.231 0v1.66c0 .34.275.615.615.615z"/></g><defs><clipPath id="hclip0_104:385"><path fill="#fff" d="M0 0h42v42H0z"/></clipPath></defs></svg><svg fill="none" viewBox="0 0 42 42" id="css--refund" xmlns="http://www.w3.org/2000/svg"><path d="M19.688 21c-7 .123-7.001 10.376 0 10.5 6.999-.123 7-10.376 0-10.5zm0 9.188c-5.224-.027-5.224-7.848 0-7.875 5.223.026 5.223 7.848 0 7.875zm9.843-5.907a1.969 1.969 0 100 3.938 1.969 1.969 0 000-3.938zm0 2.625a.656.656 0 110-1.312.656.656 0 010 1.312zM10.5 24.281a1.969 1.969 0 100 3.938 1.969 1.969 0 000-3.938zm0 2.625a.656.656 0 110-1.312.656.656 0 010 1.312zm28.053-9.581c-1.995-3.44-5.912-5.648-11.647-6.573V6.624a.661.661 0 00-1.12-.464l-8.393 8.393a.656.656 0 000 .928l.925.925H3.281a1.974 1.974 0 00-1.969 1.969v15.75a1.974 1.974 0 001.97 1.969h32.812a1.974 1.974 0 001.968-1.969v-3.954a.6.6 0 00.537-.398c1.327-3.356 2.397-8.24-.046-12.448zm-2.46 17.456H3.282a.658.658 0 01-.656-.656v-15.75a.658.658 0 01.656-.656h16.35l1.313 1.312H6.563a.658.658 0 00-.657.657A1.316 1.316 0 014.594 21a.658.658 0 00-.657.656v9.188a.658.658 0 00.657.656 1.316 1.316 0 011.312 1.313.658.658 0 00.657.656h26.25a.658.658 0 00.656-.656A1.317 1.317 0 0134.78 31.5a.658.658 0 00.657-.656V24.96a14.83 14.83 0 011.312 2.51v6.655a.658.658 0 01-.656.656zm-1.968-11.584v7.076a2.632 2.632 0 00-1.883 1.883H7.133a2.631 2.631 0 00-1.883-1.883v-8.046a2.631 2.631 0 001.883-1.883h15.123l3.53 3.53a.66.66 0 001.12-.464v-4.165c2.684-.102 5.282 1.678 7.219 3.952zm3.961 4.002c-1.688-4.24-6.858-10.314-12.022-9.11a.657.657 0 00-.47.629v3.108l-6.809-6.81 6.809-6.808v3.108a.656.656 0 00.562.65c5.625.808 9.414 2.832 11.263 6.017 1.723 2.972 1.458 6.39.667 9.216zM19.93 25.596V24.18a.663.663 0 01.517.66.196.196 0 00.196.174h.692a.199.199 0 00.197-.2 1.63 1.63 0 00-1.601-1.655v-.368c0-.296-.799-.296-.798 0v.364a1.7 1.7 0 000 3.393v1.642c-.482-.127-.644-.433-.649-.994a.198.198 0 00-.121-.182.197.197 0 00-.076-.015h-.688a.197.197 0 00-.197.197 1.789 1.789 0 001.73 2.01v.537c0 .296.798.296.798 0v-.55c2.294-.277 2.39-3.271 0-3.596zm-.798-.15a.656.656 0 010-1.288v1.288zM20.35 28a.884.884 0 01-.42.214v-1.465A.745.745 0 0120.35 28z" fill="#820101"/></svg><svg fill="none" viewBox="0 0 42 42" id="css--rocket" xmlns="http://www.w3.org/2000/svg"><path d="M41.988.616a.623.623 0 00-.605-.606C41.14.003 40.9 0 40.672 0h-.015a23.011 23.011 0 00-6.903 1.042l-.241.076a24.42 24.42 0 00-3.618 1.507 27.927 27.927 0 00-3.626 2.24.617.617 0 00-.25.406.627.627 0 00.981.604 27.082 27.082 0 013.469-2.142 23.179 23.179 0 013.326-1.396l5.865 5.865a22.357 22.357 0 01-.725 1.913 25.52 25.52 0 01-2.523 4.477c-1.068 1.528-2.357 3.052-3.832 4.53a64.055 64.055 0 01-3.436 3.159 87.422 87.422 0 01-4.182 3.382 60.087 60.087 0 01-3.984 2.797c-.121.078-.24.153-.36.226l-7.305-7.305a51.73 51.73 0 011.963-2.91c2.268-3.15 5.252-6.703 7.602-9.052a36.856 36.856 0 012.2-2.033.625.625 0 00-.404-1.1.623.623 0 00-.403.15 38.188 38.188 0 00-2.276 2.1c-.47.472-.97.994-1.488 1.555-1.353-.114-6.113.172-13.821 7.876l-.002.002-.01.009-.01.012a.537.537 0 00-.027.03c-.007.007-.012.015-.019.024l-.018.024-.02.033-.01.015c0 .001 0 .003-.002.005a.649.649 0 00-.018.037l-.009.02c-.005.01-.009.023-.013.034l-.008.024-.008.03-.008.03-.003.024-.006.037v.02c-.002.013-.002.026-.003.04l.001.024.002.034.005.035.003.024a.608.608 0 00.01.042l.004.015a.59.59 0 00.015.044l.004.013.018.039.007.016.018.031.014.023.015.023.021.028.015.017.027.03.004.005.013.012.029.026.024.018.025.018.032.02.015.01 4.87 2.705c-.59 1.018-1.038 1.92-1.333 2.698a.623.623 0 00.142.662l1.475 1.474v.001l.001.001 1.763 1.762v.001l.001.001 1.763 1.763.002.001 1.474 1.475a.63.63 0 00.662.142c.776-.296 1.68-.742 2.698-1.333l2.698 4.856v.001l.007.013.005.007a.609.609 0 00.036.055l.012.017a.605.605 0 00.044.05l.007.008a.624.624 0 00.055.05l.018.012a.598.598 0 00.129.073l.001.001c.024.01.048.018.072.024l.016.004a.63.63 0 00.057.012c.007 0 .014.002.02.003a.64.64 0 00.071.004h.011c.02 0 .04-.002.06-.004a.576.576 0 00.154-.037l.008-.003a.619.619 0 00.068-.032l.004-.002.014-.009a.539.539 0 00.034-.021l.024-.017.025-.02.027-.024.014-.013.01-.01c7.706-7.71 7.99-12.47 7.877-13.823a53.74 53.74 0 001.553-1.488c1.524-1.522 2.862-3.101 3.974-4.696a26.907 26.907 0 002.643-4.699 23.716 23.716 0 00.9-2.441 22.7 22.7 0 00.568-2.23 23.341 23.341 0 00.441-5.322zM8.148 18.278c2.42-2.343 5.804-5.15 9.162-6.378a9.645 9.645 0 012.042-.526c-.38.432-.764.879-1.151 1.338a85.315 85.315 0 00-3.937 5.03 55.592 55.592 0 00-1.936 2.858l-4.18-2.322zm9.414 12.057l-.744-.744.147-.147a.624.624 0 00-.882-.882l-.147.147-.882-.882.147-.147a.624.624 0 00-.882-.882l-.147.147-.882-.882.147-.147a.624.624 0 00-.882-.882l-.147.147-.744-.744c.242-.57.573-1.225.988-1.952l6.863 6.862c-.727.415-1.38.746-1.953.988zm12.537-5.646c-1.228 3.359-4.035 6.743-6.378 9.162l-2.322-4.18c1.298-.815 2.75-1.83 4.316-3.014a88.306 88.306 0 004.91-4.01 9.654 9.654 0 01-.526 2.042zM40.323 5.692c-.076.383-.164.765-.262 1.146l-4.901-4.9c.708-.183 1.426-.33 2.145-.44a22.71 22.71 0 013.367-.25h.079v.08a22.504 22.504 0 01-.428 4.364zm-26.886 22.87a4.751 4.751 0 00-3.381-1.4 4.75 4.75 0 00-3.381 1.4c-.902.902-2.895 3.598-4.426 6.175C1.36 36.234.725 37.518.362 38.554c-.509 1.448-.48 2.428.088 2.996.299.299.72.45 1.254.45 3.098 0 10.397-5.34 11.733-6.675a4.788 4.788 0 000-6.763zm-.882 5.88c-.685.685-2.811 2.294-5.052 3.7-2.646 1.659-4.76 2.61-5.799 2.61-.18 0-.319-.031-.372-.084-.201-.202-.237-1.545 1.99-5.294 1.596-2.687 3.517-5.212 4.235-5.93a3.511 3.511 0 012.499-1.035c.944 0 1.832.368 2.5 1.035a3.538 3.538 0 010 4.999z" fill="#820101"/><path d="M26.323 15.676a3.511 3.511 0 00-2.499-1.035c-.944 0-1.832.368-2.499 1.035a3.511 3.511 0 00-1.035 2.5 3.51 3.51 0 001.035 2.499 3.511 3.511 0 002.499 1.035c.944 0 1.832-.368 2.5-1.035a3.51 3.51 0 001.034-2.5 3.51 3.51 0 00-1.035-2.499zm-.882 4.117a2.272 2.272 0 01-1.617.67c-.61 0-1.185-.238-1.617-.67a2.272 2.272 0 01-.67-1.617c0-.611.238-1.186.67-1.618a2.272 2.272 0 011.617-.67c.61 0 1.185.238 1.617.67.432.433.67 1.007.67 1.618a2.27 2.27 0 01-.67 1.617zM33.38 8.618a3.51 3.51 0 00-2.499-1.035c-.944 0-1.832.368-2.5 1.035a3.538 3.538 0 000 4.999 3.512 3.512 0 002.5 1.035c.944 0 1.832-.368 2.5-1.035a3.511 3.511 0 001.035-2.5 3.51 3.51 0 00-1.036-2.499zm-.882 4.117a2.272 2.272 0 01-1.617.67 2.29 2.29 0 010-4.574c.611 0 1.185.237 1.617.67a2.27 2.27 0 01.67 1.617c0 .61-.238 1.185-.67 1.617zM11.673 30.326a2.272 2.272 0 00-1.617-.67c-.611 0-1.185.238-1.617.67-.371.37-1.634 1.913-2.691 3.392-.62.867-1.089 1.596-1.392 2.166-.368.693-.68 1.466-.193 1.952a.88.88 0 00.644.25c.264 0 .964 0 3.793-2.065 1.404-1.024 2.736-2.123 3.073-2.46a2.29 2.29 0 000-3.235zm-.882 2.352c-.248.248-1.496 1.29-2.9 2.317-1.28.934-2.055 1.395-2.51 1.622.228-.454.689-1.23 1.624-2.508 1.026-1.405 2.068-2.653 2.316-2.9a1.03 1.03 0 01.735-.305 1.04 1.04 0 01.735 1.774z" fill="#820101"/></svg><svg fill="none" viewBox="0 0 16 16" id="css--select" xmlns="http://www.w3.org/2000/svg"><path d="M15.764 1.866a.805.805 0 00-1.14 0L7.396 9.097l-3.33-3.33a.805.805 0 10-1.14 1.139l3.9 3.9a.805.805 0 001.14 0l7.8-7.8a.806.806 0 00-.001-1.14z" fill="#820101"/><path d="M14.025 7.03a.806.806 0 00-.806.805v5.969H1.611V2.196h9.191a.805.805 0 100-1.611H.806A.806.806 0 000 1.39v13.22c0 .444.36.805.806.805h13.219c.445 0 .805-.36.805-.806V7.835a.806.806 0 00-.805-.806z" fill="#820101"/></svg><svg fill="none" viewBox="0 0 42 42" id="css--study" xmlns="http://www.w3.org/2000/svg"><path d="M21 25.207a.657.657 0 01-.279-.063L.377 15.573a.657.657 0 010-1.188l20.344-9.574a.656.656 0 01.558 0l20.344 9.574a.656.656 0 010 1.188l-20.344 9.571a.658.658 0 01-.279.063zM2.198 14.979L21 23.84l18.801-8.86L21 6.13 2.198 14.98z" fill="#820101"/><path d="M7.875 26.25a.656.656 0 01-.656-.656v-6.89a.656.656 0 011.312 0v6.89a.656.656 0 01-.656.656zm26.25 0a.656.656 0 01-.656-.656v-6.89a.656.656 0 111.312 0v6.89a.656.656 0 01-.656.656z" fill="#820101"/><path d="M21 32.986c-7.422 0-13.781-4.065-13.781-7.392a.656.656 0 011.312 0c0 2.08 5.25 6.08 12.469 6.08 7.219 0 12.469-4 12.469-6.08a.656.656 0 111.312 0c0 3.327-6.359 7.392-13.781 7.392z" fill="#820101"/><path d="M30.844 33.14a.656.656 0 01-.657-.656v-12.39l-9.48-4.741a.654.654 0 01-.153-1.095.657.657 0 01.738-.08l9.844 4.922a.657.657 0 01.364.587v12.797a.656.656 0 01-.656.657z" fill="#820101"/><path d="M30.844 36.094a1.969 1.969 0 110-3.938 1.969 1.969 0 010 3.938zm0-2.625a.655.655 0 100 1.31.655.655 0 000-1.31z" fill="#820101"/><path d="M31.828 40.031H29.86a.657.657 0 01-.656-.712l.328-3.937a.657.657 0 111.313.05.657.657 0 111.312-.05l.328 3.937a.657.657 0 01-.656.712zm-1.257-1.312h.545l-.272-3.226a.253.253 0 010-.049.253.253 0 010 .05l-.273 3.225z" fill="#820101"/></svg><svg fill="none" viewBox="0 0 42 42" id="css--success" xmlns="http://www.w3.org/2000/svg"><path d="M37.077 40.865H6.058a.568.568 0 01-.568-.568v-9.519a.567.567 0 01.568-.567h6.587v-3.05a.567.567 0 01.568-.567h7.61v-3.62a.568.568 0 01.567-.568h6.837v-3.812a.567.567 0 01.568-.567h8.282a.568.568 0 01.567.567v21.703a.568.568 0 01-.567.568zM6.626 39.729h29.883V19.163h-7.147v3.811a.567.567 0 01-.567.568h-6.838v3.62a.568.568 0 01-.567.568h-7.61v3.05a.567.567 0 01-.567.567H6.626v8.384z" fill="#820101"/><path d="M8.271 30.01a1.909 1.909 0 01-1.504-3.077l3.624-4.986 1.107-9.105-.887.391-1.126 1.978a1.662 1.662 0 01-2.92-1.59l1.544-2.967c.167-.321.42-.59.732-.774l3.362-1.99a2.587 2.587 0 012.288-.168l3.188 1.306c.465.19.864.512 1.148.927l1.11 1.62 2.246-.653a1.692 1.692 0 011.03 3.222l-3.044 1.06a1.944 1.944 0 01-1.917-.379l-.528-.465-.178 1.75a4.678 4.678 0 012.491 4.612l-.39 5.165a1.932 1.932 0 01-2.094 1.775 1.93 1.93 0 01-1.75-2.116l.34-4.654a.69.69 0 00-1.369-.164l-.293 2.246c-.056.41-.229.794-.498 1.107l-4.249 5.256a1.93 1.93 0 01-1.463.673zm3.911-18.659a.568.568 0 01.564.637l-1.249 10.24a.565.565 0 01-.104.267L7.67 27.613a.782.782 0 00.14 1.112.779.779 0 001.054-.114l4.242-5.248.012-.014c.128-.148.21-.33.237-.523l.294-2.246a1.824 1.824 0 012.123-1.553 1.835 1.835 0 011.503 1.96l-.34 4.654a.794.794 0 101.582.148l.39-5.165a3.543 3.543 0 00-2.1-3.61l-.072-.03a.567.567 0 01-.36-.587l.33-3.255a.567.567 0 01.94-.368l1.357 1.197a.807.807 0 00.794.158l3.045-1.06a.558.558 0 00-.34-1.061l-2.646.768a.568.568 0 01-.624-.224l-1.342-1.96a1.436 1.436 0 00-.642-.518L14.06 8.77a1.443 1.443 0 00-1.278.094l-3.36 1.994a.804.804 0 00-.304.32l-1.543 2.968a.527.527 0 00.925.504l1.22-2.14a.567.567 0 01.264-.239l1.972-.87a.567.567 0 01.226-.049z" fill="#820101"/><path d="M17.283 8.41a3.522 3.522 0 01-.217-7.037 3.522 3.522 0 11.217 7.037zm-.146-5.902a2.387 2.387 0 102.53 2.234 2.367 2.367 0 00-2.53-2.234z" fill="#820101"/></svg><svg fill="none" viewBox="0 0 42 42" id="css--tactics" xmlns="http://www.w3.org/2000/svg"><g clip-path="url(#nclip0_104:394)" fill="#820101"><path d="M17.995 17.705l-5.6-5.6a.7.7 0 10-.99.99l5.6 5.6a.698.698 0 00.99 0 .7.7 0 000-.99z"/><path d="M17.995 12.105a.7.7 0 00-.99 0l-5.6 5.6a.7.7 0 10.99.99l5.6-5.6a.7.7 0 000-.99zm12.6 22.4l-2.8-2.8a.7.7 0 10-.99.99l2.8 2.8a.698.698 0 00.99 0 .7.7 0 000-.99z"/><path d="M30.595 31.705a.7.7 0 00-.99 0l-2.8 2.8a.7.7 0 10.99.99l2.8-2.8a.7.7 0 000-.99zM15.4 28.7a2.803 2.803 0 00-2.8 2.8c0 1.544 1.256 2.8 2.8 2.8 1.544 0 2.8-1.256 2.8-2.8 0-1.544-1.256-2.8-2.8-2.8zm0 4.2c-.772 0-1.4-.628-1.4-1.4 0-.772.628-1.4 1.4-1.4.772 0 1.4.628 1.4 1.4 0 .772-.628 1.4-1.4 1.4zm11.2-9.8a2.803 2.803 0 00-2.8 2.8c0 1.544 1.256 2.8 2.8 2.8 1.544 0 2.8-1.256 2.8-2.8 0-1.544-1.256-2.8-2.8-2.8zm0 4.2c-.772 0-1.4-.628-1.4-1.4 0-.772.628-1.4 1.4-1.4.772 0 1.4.628 1.4 1.4 0 .772-.628 1.4-1.4 1.4zm-.7-14a.7.7 0 00-.7.7c0 5.404-4.396 9.8-9.8 9.8a.7.7 0 100 1.4c6.175 0 11.2-5.025 11.2-11.2a.7.7 0 00-.7-.7z"/><path d="M29.195 16.305l-2.8-2.8a.7.7 0 00-.99 0l-2.8 2.8a.7.7 0 10.99.99L25.9 14.99l2.305 2.305a.698.698 0 00.99 0 .7.7 0 000-.99zM26.929 2.1h-1.791a1.663 1.663 0 01-1.332-.678A3.5 3.5 0 0021 0a3.5 3.5 0 00-2.806 1.422 1.663 1.663 0 01-1.332.678h-1.791A2.474 2.474 0 0012.6 4.571V8.4a.7.7 0 00.7.7h15.4a.7.7 0 00.7-.7V4.571A2.474 2.474 0 0026.929 2.1zm1.07 5.6H14V4.571c0-.59.482-1.071 1.072-1.071h1.791a3.07 3.07 0 002.46-1.248A2.065 2.065 0 0121 1.4c.668 0 1.28.31 1.68.852A3.066 3.066 0 0025.137 3.5h1.79C27.52 3.5 28 3.98 28 4.571V7.7z"/><path d="M33.6 3.5h-4.9a.7.7 0 00-.7.7v3.5H14V4.2a.7.7 0 00-.7-.7H8.4C6.47 3.5 4.9 5.07 4.9 7v31.5c0 1.93 1.57 3.5 3.5 3.5h25.2c1.93 0 3.5-1.57 3.5-3.5V7c0-1.93-1.57-3.5-3.5-3.5zm2.1 35c0 1.158-.942 2.1-2.1 2.1H8.4c-1.158 0-2.1-.942-2.1-2.1V7c0-1.158.942-2.1 2.1-2.1h4.2v3.5a.7.7 0 00.7.7h15.4a.7.7 0 00.7-.7V4.9h4.2c1.158 0 2.1.942 2.1 2.1v31.5z"/><path d="M32.2 6.3h-3.5a.7.7 0 00-.7.7v.7H14V7a.7.7 0 00-.7-.7H9.8c-1.158 0-2.1.942-2.1 2.1v28.7c0 1.158.942 2.1 2.1 2.1h22.4c1.158 0 2.1-.942 2.1-2.1V8.4c0-1.158-.942-2.1-2.1-2.1zm.7 30.8a.7.7 0 01-.7.7H9.8a.7.7 0 01-.7-.7V8.4a.7.7 0 01.7-.7h2.8v.7a.7.7 0 00.7.7h15.4a.7.7 0 00.7-.7v-.7h2.8a.7.7 0 01.7.7v28.7z"/><path d="M21.703 2.8h-1.407c-.77 0-1.396.626-1.396 1.396v1.407c0 .77.626 1.397 1.396 1.397h1.407c.77 0 1.397-.627 1.397-1.397V4.196c0-.77-.627-1.396-1.397-1.396zM20.3 5.603L20.296 4.2l1.404-.004V5.6l-1.4.003z"/></g><defs><clipPath id="nclip0_104:394"><path fill="#fff" d="M0 0h42v42H0z"/></clipPath></defs></svg><svg fill="none" viewBox="0 0 42 42" id="css--teamwork" xmlns="http://www.w3.org/2000/svg"><g clip-path="url(#oclip0_104:454)" fill="#820101"><path d="M37.028 28.991a5.08 5.08 0 002.019-4.053 5.092 5.092 0 00-5.086-5.086 5.092 5.092 0 00-5.086 5.085 5.08 5.08 0 002.018 4.053 8.019 8.019 0 00-2.714 1.848 8.088 8.088 0 00-4.112-3.815 5.08 5.08 0 002.019-4.054A5.092 5.092 0 0021 17.883a5.092 5.092 0 00-5.086 5.086 5.08 5.08 0 002.019 4.054 8.088 8.088 0 00-4.112 3.815 8.019 8.019 0 00-2.714-1.848 5.08 5.08 0 002.018-4.052 5.092 5.092 0 00-5.086-5.086 5.092 5.092 0 00-5.086 5.085 5.08 5.08 0 002.02 4.054C2.055 30.2 0 33.075 0 36.421v4.759c0 .453.367.82.82.82h40.36a.82.82 0 00.821-.82v-4.758c0-3.347-2.056-6.223-4.972-7.43zM4.594 24.938a3.45 3.45 0 013.445-3.446 3.45 3.45 0 013.445 3.445 3.45 3.45 0 01-3.445 3.446 3.45 3.45 0 01-3.445-3.445zm8.367 9.516v5.905H1.64v-3.937a6.406 6.406 0 016.398-6.399c2.035 0 3.93.96 5.136 2.585a8.037 8.037 0 00-.214 1.846zm4.594-11.485A3.45 3.45 0 0121 19.524a3.45 3.45 0 013.445 3.445A3.45 3.45 0 0121 26.415a3.45 3.45 0 01-3.445-3.446zm9.843 17.39h-1.627v-2.586a.82.82 0 10-1.64 0v2.586H14.6v-5.905a6.406 6.406 0 016.4-6.399 6.406 6.406 0 016.398 6.399v5.905zm3.118-15.422a3.45 3.45 0 013.445-3.445 3.45 3.45 0 013.445 3.445 3.45 3.45 0 01-3.445 3.446 3.45 3.45 0 01-3.445-3.445zm9.843 15.422H29.04v-5.905c0-.635-.074-1.253-.214-1.846a6.385 6.385 0 015.136-2.585 6.406 6.406 0 016.398 6.399v3.937zM29.127 2.526a.82.82 0 00-1.16 0l-2.815 2.815a.82.82 0 001.16 1.16l2.815-2.814a.82.82 0 000-1.16zM16.848 5.341l-2.815-2.815a.82.82 0 00-1.16 1.16l2.815 2.815a.818.818 0 001.16 0 .82.82 0 000-1.16zM21 0a.82.82 0 00-.82.82v1.763a.82.82 0 101.64 0V.82A.82.82 0 0021 0zm6.374 9.266a1.204 1.204 0 00-.978-.825l-2.978-.432-1.331-2.699A1.204 1.204 0 0021 4.635c-.465 0-.88.259-1.087.675l-1.331 2.7-2.978.432c-.46.067-.834.383-.978.825-.144.442-.026.918.306 1.242l2.155 2.1-.508 2.966c-.079.458.106.912.482 1.185a1.208 1.208 0 001.276.092l2.663-1.4 2.663 1.4c.412.217.9.181 1.277-.092.375-.273.56-.727.482-1.185l-.51-2.966 2.156-2.1c.332-.324.45-.8.306-1.242zm-3.768 2.325c-.285.278-.416.68-.348 1.072l.4 2.332-2.094-1.1a1.211 1.211 0 00-1.128 0l-2.093 1.1.4-2.332a1.212 1.212 0 00-.35-1.072L16.7 9.94l2.34-.34a1.21 1.21 0 00.913-.663L21 6.816l1.138 2.305c.12.242.35.41.617.449l2.545.37-1.694 1.65z"/><path d="M25.531 33.998a.824.824 0 00-1.16 0 .825.825 0 000 1.161c.153.153.364.24.58.24a.828.828 0 00.58-.24.828.828 0 00.24-.58.83.83 0 00-.24-.58z"/></g><defs><clipPath id="oclip0_104:454"><path fill="#fff" d="M0 0h42v42H0z"/></clipPath></defs></svg><svg aria-hidden="true" data-prefix="fas" data-icon="user" viewBox="0 0 448 512" class="psvg-inline--fa pfa-user pfa-w-14 pfa-2x" id="css--user" xmlns="http://www.w3.org/2000/svg"><path fill="#820101" d="M224 256c70.7 0 128-57.3 128-128S294.7 0 224 0 96 57.3 96 128s57.3 128 128 128zm89.6 32h-16.7c-22.2 10.2-46.9 16-72.9 16s-50.6-5.8-72.9-16h-16.7C60.2 288 0 348.2 0 422.4V464c0 26.5 21.5 48 48 48h352c26.5 0 48-21.5 48-48v-41.6c0-74.2-60.2-134.4-134.4-134.4z"/></svg></svg>