<svg width="836" height="721" fill="none" xmlns="http://www.w3.org/2000/svg"><path fill-rule="evenodd" clip-rule="evenodd" d="M732.923 521.027c35.308 4.007 69.923 11.767 103.077 23.106l-88.929-134.61a378.266 378.266 0 00-41.514-7.283c-20.872-2.467-42.39-3.393-64.394-2.958l40.674 117.988c17.259.549 34.304 1.782 51.086 3.757zm-223.39 10.481l42.764-123.877c-157.873 25.379-328.869 103.672-461.85 176.62L0 721h3.062c145.036-76.58 328.717-157.237 506.471-189.492zM330.838 220.423L476.449.111 578.19 154.112c-81.77 9.478-166.655 34.562-247.352 66.311zm290.672-.949l74.232 112.351c-167.52-12.919-361.057 53.094-524.859 130.701l87.974-133.091c114.358-55.221 245.808-103.856 362.653-109.961zm-24.182 191.202l-26.846 82.564h55.397l-26.846-82.564h-1.705z" fill="#E23B3B" fill-opacity=".08"/></svg>