<svg width="514" height="444" fill="none" xmlns="http://www.w3.org/2000/svg"><path d="M514 335.067c-20.384-6.984-41.667-11.763-63.375-14.231C305.963 303.781 129.566 376.464 1.883 444H0l55.61-84.224c109.329-60.079 260.452-126.045 378.19-112.102a232.342 232.342 0 0125.523 4.485L514 335.067zM292.936 0L203.41 135.691c49.615-19.554 101.805-35.003 152.08-40.84L292.936 0zm134.829 204.305l-45.641-69.198c-71.839 3.76-152.659 33.715-222.971 67.726l-54.089 81.971c100.711-47.798 219.704-88.456 322.701-80.499z" fill="#F1F1F1"/></svg>