<svg width="468" height="404" fill="none" xmlns="http://www.w3.org/2000/svg"><path d="M468 304.881c-18.56-6.355-37.938-10.704-57.703-12.949C278.582 276.413 117.971 342.548 1.714 404H0l50.633-76.637c99.545-54.666 237.143-114.689 344.344-102.002a211.777 211.777 0 0123.24 4.081L468 304.881zM266.72 0l-81.514 123.467c45.175-17.793 92.694-31.85 138.47-37.162L266.72 0zm122.762 185.899l-41.555-62.964c-65.411 3.422-138.998 30.678-203.017 61.625l-49.248 74.586c91.698-43.492 200.041-80.487 293.82-73.247z" fill="#fff" fill-opacity=".05"/></svg>